# xmcd
#
# Track frame offsets:
#	150
#	17130
#	33955
#	48805
#	66140
#	80400
#	97427
#	114312
#	129112
#	146422
#
# Disc length: 2141 seconds
#
# Revision: 1
# Processed by: cddbd v1.5.2PL0 Copyright (c) Steve Scherf et al.
# Submitted via: audiograbber 1.83.01
#
DISCID=7c085b0a
DTITLE=K0005-P1323G - Dixie Chick, The
DYEAR=1900
DGENRE=Country
TTITLE0=Dixie Chicks, The - Heartache's On Me, The
TTITLE1=Dixie Chicks, The - You Were Mine
TTITLE2=Dixie Chicks, The - There's Your Trouble
TTITLE3=Dixie Chicks, The - Wide Open Spaces
TTITLE4=Dixie Chicks, The - I Can Love You Better
TTITLE5=Dixie Chicks, The - Heartache's On Me, The (vocal)
TTITLE6=Dixie Chicks, The - You Were Mine (vocal)
TTITLE7=Dixie Chicks, The - There's Your Trouble (vocal)
TTITLE8=Dixie Chicks, The - Wide Open Spaces (vocal)
TTITLE9=Dixie Chicks, The - I Can Love You Better (vocal)
EXTD=
EXTT0=
EXTT1=
EXTT2=
EXTT3=
EXTT4=
EXTT5=
EXTT6=
EXTT7=
EXTT8=
EXTT9=
PLAYORDER=
